<mxfile host="app.diagrams.net" modified="2022-07-20T03:34:08.466Z" agent="5.0 (Windows NT 10.0; Win64; x64) AppleWebKit/537.36 (KHTML, like Gecko) Chrome/89.0.4389.90 Safari/537.36" etag="ACypYZhH8cAQ1kENRXu6" version="20.1.2" type="github">
  <diagram id="C5RBs43oDa-KdzZeNtuy" name="Page-1">
    <mxGraphModel dx="965" dy="599" grid="1" gridSize="10" guides="1" tooltips="1" connect="1" arrows="1" fold="1" page="1" pageScale="1" pageWidth="827" pageHeight="1169" math="0" shadow="0">
      <root>
        <mxCell id="WIyWlLk6GJQsqaUBKTNV-0" />
        <mxCell id="WIyWlLk6GJQsqaUBKTNV-1" parent="WIyWlLk6GJQsqaUBKTNV-0" />
        <mxCell id="WIyWlLk6GJQsqaUBKTNV-2" value="newCall()" style="rounded=0;html=1;jettySize=auto;orthogonalLoop=1;fontSize=11;endArrow=block;endFill=0;endSize=8;strokeWidth=1;shadow=0;labelBackgroundColor=none;edgeStyle=orthogonalEdgeStyle;" parent="WIyWlLk6GJQsqaUBKTNV-1" source="WIyWlLk6GJQsqaUBKTNV-3" edge="1">
          <mxGeometry relative="1" as="geometry">
            <mxPoint x="220" y="190" as="targetPoint" />
          </mxGeometry>
        </mxCell>
        <mxCell id="WIyWlLk6GJQsqaUBKTNV-3" value="&lt;span style=&quot;color: rgb(50, 50, 50); font-family: 微软雅黑; font-size: 13px; background-color: rgba(255, 255, 255, 0.01);&quot;&gt;OkHttpClient&lt;/span&gt;" style="rounded=1;whiteSpace=wrap;html=1;fontSize=12;glass=0;strokeWidth=1;shadow=0;" parent="WIyWlLk6GJQsqaUBKTNV-1" vertex="1">
          <mxGeometry x="160" y="100" width="120" height="40" as="geometry" />
        </mxCell>
        <mxCell id="BfcjpGbVQdAkZ2BNocG8-3" style="edgeStyle=orthogonalEdgeStyle;rounded=0;orthogonalLoop=1;jettySize=auto;html=1;" edge="1" parent="WIyWlLk6GJQsqaUBKTNV-1" source="BfcjpGbVQdAkZ2BNocG8-0">
          <mxGeometry relative="1" as="geometry">
            <mxPoint x="220" y="280" as="targetPoint" />
          </mxGeometry>
        </mxCell>
        <mxCell id="BfcjpGbVQdAkZ2BNocG8-0" value="&lt;span style=&quot;color: rgb(50, 50, 50); font-family: 微软雅黑; font-size: 13px; background-color: rgba(255, 255, 255, 0.01);&quot;&gt;new RealCall()&lt;/span&gt;" style="rounded=0;whiteSpace=wrap;html=1;" vertex="1" parent="WIyWlLk6GJQsqaUBKTNV-1">
          <mxGeometry x="160" y="200" width="120" height="60" as="geometry" />
        </mxCell>
        <mxCell id="BfcjpGbVQdAkZ2BNocG8-22" value="是" style="edgeStyle=orthogonalEdgeStyle;rounded=0;orthogonalLoop=1;jettySize=auto;html=1;exitX=0.5;exitY=1;exitDx=0;exitDy=0;entryX=0.5;entryY=0;entryDx=0;entryDy=0;" edge="1" parent="WIyWlLk6GJQsqaUBKTNV-1" source="BfcjpGbVQdAkZ2BNocG8-4" target="BfcjpGbVQdAkZ2BNocG8-21">
          <mxGeometry relative="1" as="geometry" />
        </mxCell>
        <mxCell id="BfcjpGbVQdAkZ2BNocG8-25" style="edgeStyle=orthogonalEdgeStyle;rounded=0;orthogonalLoop=1;jettySize=auto;html=1;entryX=0;entryY=0.5;entryDx=0;entryDy=0;" edge="1" parent="WIyWlLk6GJQsqaUBKTNV-1" source="BfcjpGbVQdAkZ2BNocG8-4" target="BfcjpGbVQdAkZ2BNocG8-24">
          <mxGeometry relative="1" as="geometry" />
        </mxCell>
        <mxCell id="BfcjpGbVQdAkZ2BNocG8-34" value="否" style="edgeLabel;html=1;align=center;verticalAlign=middle;resizable=0;points=[];fontSize=13;fontFamily=Helvetica;fontColor=#000000;" vertex="1" connectable="0" parent="BfcjpGbVQdAkZ2BNocG8-25">
          <mxGeometry x="-0.3267" y="-2" relative="1" as="geometry">
            <mxPoint as="offset" />
          </mxGeometry>
        </mxCell>
        <mxCell id="BfcjpGbVQdAkZ2BNocG8-4" value="是否同步" style="rhombus;whiteSpace=wrap;html=1;" vertex="1" parent="WIyWlLk6GJQsqaUBKTNV-1">
          <mxGeometry x="170" y="280" width="100" height="40" as="geometry" />
        </mxCell>
        <mxCell id="BfcjpGbVQdAkZ2BNocG8-13" style="edgeStyle=orthogonalEdgeStyle;rounded=0;orthogonalLoop=1;jettySize=auto;html=1;exitX=0.5;exitY=1;exitDx=0;exitDy=0;" edge="1" parent="WIyWlLk6GJQsqaUBKTNV-1" source="BfcjpGbVQdAkZ2BNocG8-5" target="BfcjpGbVQdAkZ2BNocG8-6">
          <mxGeometry relative="1" as="geometry" />
        </mxCell>
        <mxCell id="BfcjpGbVQdAkZ2BNocG8-5" value="&lt;span style=&quot;color: rgb(50, 50, 50); font-family: 微软雅黑; font-size: 13px; background-color: rgba(255, 255, 255, 0.01);&quot;&gt;getResponseWithInterceptorChain()&lt;/span&gt;" style="rounded=0;whiteSpace=wrap;html=1;" vertex="1" parent="WIyWlLk6GJQsqaUBKTNV-1">
          <mxGeometry x="93.75" y="415" width="252.5" height="40" as="geometry" />
        </mxCell>
        <mxCell id="BfcjpGbVQdAkZ2BNocG8-15" style="edgeStyle=orthogonalEdgeStyle;rounded=0;orthogonalLoop=1;jettySize=auto;html=1;entryX=0.5;entryY=0;entryDx=0;entryDy=0;" edge="1" parent="WIyWlLk6GJQsqaUBKTNV-1" source="BfcjpGbVQdAkZ2BNocG8-6" target="BfcjpGbVQdAkZ2BNocG8-7">
          <mxGeometry relative="1" as="geometry" />
        </mxCell>
        <mxCell id="BfcjpGbVQdAkZ2BNocG8-6" value="&lt;span style=&quot;color: rgb(50, 50, 50); font-family: 微软雅黑; font-size: 13px; font-style: normal; font-variant-ligatures: normal; font-variant-caps: normal; letter-spacing: normal; orphans: 2; text-align: center; text-indent: 0px; text-transform: none; widows: 2; word-spacing: 0px; -webkit-text-stroke-width: 0px; background-color: rgba(255, 255, 255, 0.01); text-decoration-thickness: initial; text-decoration-style: initial; text-decoration-color: initial; float: none; display: inline !important;&quot;&gt;interceptors&lt;/span&gt;" style="rounded=0;whiteSpace=wrap;html=1;" vertex="1" parent="WIyWlLk6GJQsqaUBKTNV-1">
          <mxGeometry x="140" y="475" width="160" height="30" as="geometry" />
        </mxCell>
        <mxCell id="BfcjpGbVQdAkZ2BNocG8-14" style="edgeStyle=orthogonalEdgeStyle;rounded=0;orthogonalLoop=1;jettySize=auto;html=1;entryX=0.5;entryY=0;entryDx=0;entryDy=0;" edge="1" parent="WIyWlLk6GJQsqaUBKTNV-1" source="BfcjpGbVQdAkZ2BNocG8-7" target="BfcjpGbVQdAkZ2BNocG8-8">
          <mxGeometry relative="1" as="geometry" />
        </mxCell>
        <mxCell id="BfcjpGbVQdAkZ2BNocG8-7" value="&lt;span style=&quot;color: rgb(50, 50, 50); font-family: 微软雅黑; font-size: 13px; background-color: rgba(255, 255, 255, 0.01);&quot;&gt;RetryAndFollowUpInterceptor&lt;/span&gt;" style="rounded=0;whiteSpace=wrap;html=1;" vertex="1" parent="WIyWlLk6GJQsqaUBKTNV-1">
          <mxGeometry x="120" y="525" width="200" height="40" as="geometry" />
        </mxCell>
        <mxCell id="BfcjpGbVQdAkZ2BNocG8-16" style="edgeStyle=orthogonalEdgeStyle;rounded=0;orthogonalLoop=1;jettySize=auto;html=1;entryX=0.5;entryY=0;entryDx=0;entryDy=0;" edge="1" parent="WIyWlLk6GJQsqaUBKTNV-1" source="BfcjpGbVQdAkZ2BNocG8-8" target="BfcjpGbVQdAkZ2BNocG8-9">
          <mxGeometry relative="1" as="geometry" />
        </mxCell>
        <mxCell id="BfcjpGbVQdAkZ2BNocG8-8" value="&lt;span style=&quot;color: rgb(50, 50, 50); font-family: 微软雅黑; font-size: 13px; background-color: rgba(255, 255, 255, 0.01);&quot;&gt;BridgeInterceptor&lt;/span&gt;" style="rounded=0;whiteSpace=wrap;html=1;" vertex="1" parent="WIyWlLk6GJQsqaUBKTNV-1">
          <mxGeometry x="120" y="585" width="200" height="40" as="geometry" />
        </mxCell>
        <mxCell id="BfcjpGbVQdAkZ2BNocG8-17" style="edgeStyle=orthogonalEdgeStyle;rounded=0;orthogonalLoop=1;jettySize=auto;html=1;entryX=0.5;entryY=0;entryDx=0;entryDy=0;" edge="1" parent="WIyWlLk6GJQsqaUBKTNV-1" source="BfcjpGbVQdAkZ2BNocG8-9" target="BfcjpGbVQdAkZ2BNocG8-10">
          <mxGeometry relative="1" as="geometry" />
        </mxCell>
        <mxCell id="BfcjpGbVQdAkZ2BNocG8-9" value="&lt;span style=&quot;color: rgb(50, 50, 50); font-family: 微软雅黑; font-size: 13px; background-color: rgba(255, 255, 255, 0.01);&quot;&gt;CacheInterceptor&lt;/span&gt;" style="rounded=0;whiteSpace=wrap;html=1;" vertex="1" parent="WIyWlLk6GJQsqaUBKTNV-1">
          <mxGeometry x="120" y="645" width="200" height="40" as="geometry" />
        </mxCell>
        <mxCell id="BfcjpGbVQdAkZ2BNocG8-18" style="edgeStyle=orthogonalEdgeStyle;rounded=0;orthogonalLoop=1;jettySize=auto;html=1;" edge="1" parent="WIyWlLk6GJQsqaUBKTNV-1" source="BfcjpGbVQdAkZ2BNocG8-10" target="BfcjpGbVQdAkZ2BNocG8-11">
          <mxGeometry relative="1" as="geometry" />
        </mxCell>
        <mxCell id="BfcjpGbVQdAkZ2BNocG8-10" value="&lt;span style=&quot;color: rgb(50, 50, 50); font-family: 微软雅黑; font-size: 13px; background-color: rgba(255, 255, 255, 0.01);&quot;&gt;ConnectInterceptor&lt;/span&gt;" style="rounded=0;whiteSpace=wrap;html=1;" vertex="1" parent="WIyWlLk6GJQsqaUBKTNV-1">
          <mxGeometry x="130" y="705" width="180" height="40" as="geometry" />
        </mxCell>
        <mxCell id="BfcjpGbVQdAkZ2BNocG8-19" style="edgeStyle=orthogonalEdgeStyle;rounded=0;orthogonalLoop=1;jettySize=auto;html=1;entryX=0.5;entryY=0;entryDx=0;entryDy=0;" edge="1" parent="WIyWlLk6GJQsqaUBKTNV-1" source="BfcjpGbVQdAkZ2BNocG8-11" target="BfcjpGbVQdAkZ2BNocG8-12">
          <mxGeometry relative="1" as="geometry" />
        </mxCell>
        <mxCell id="BfcjpGbVQdAkZ2BNocG8-11" value="&lt;span style=&quot;color: rgb(50, 50, 50); font-family: 微软雅黑; font-size: 13px; background-color: rgba(255, 255, 255, 0.01);&quot;&gt;networkInterceptors&lt;/span&gt;" style="rounded=0;whiteSpace=wrap;html=1;" vertex="1" parent="WIyWlLk6GJQsqaUBKTNV-1">
          <mxGeometry x="130" y="765" width="180" height="50" as="geometry" />
        </mxCell>
        <mxCell id="BfcjpGbVQdAkZ2BNocG8-12" value="&lt;span style=&quot;color: rgb(50, 50, 50); font-family: 微软雅黑; font-size: 13px; background-color: rgba(255, 255, 255, 0.01);&quot;&gt;CallServerInterceptor&lt;/span&gt;" style="rounded=0;whiteSpace=wrap;html=1;" vertex="1" parent="WIyWlLk6GJQsqaUBKTNV-1">
          <mxGeometry x="140" y="835" width="160" height="35" as="geometry" />
        </mxCell>
        <mxCell id="BfcjpGbVQdAkZ2BNocG8-23" style="edgeStyle=orthogonalEdgeStyle;rounded=0;orthogonalLoop=1;jettySize=auto;html=1;entryX=0.5;entryY=0;entryDx=0;entryDy=0;" edge="1" parent="WIyWlLk6GJQsqaUBKTNV-1" source="BfcjpGbVQdAkZ2BNocG8-21" target="BfcjpGbVQdAkZ2BNocG8-5">
          <mxGeometry relative="1" as="geometry" />
        </mxCell>
        <mxCell id="BfcjpGbVQdAkZ2BNocG8-21" value="&lt;font face=&quot;微软雅黑&quot; color=&quot;#323232&quot;&gt;&lt;span style=&quot;font-size: 13px; background-color: rgba(255, 255, 255, 0.01);&quot;&gt;execute&lt;/span&gt;&lt;/font&gt;" style="rounded=0;whiteSpace=wrap;html=1;" vertex="1" parent="WIyWlLk6GJQsqaUBKTNV-1">
          <mxGeometry x="145" y="363" width="150" height="30" as="geometry" />
        </mxCell>
        <mxCell id="BfcjpGbVQdAkZ2BNocG8-29" style="edgeStyle=orthogonalEdgeStyle;rounded=0;orthogonalLoop=1;jettySize=auto;html=1;entryX=0.5;entryY=0;entryDx=0;entryDy=0;fontColor=#000000;" edge="1" parent="WIyWlLk6GJQsqaUBKTNV-1" source="BfcjpGbVQdAkZ2BNocG8-24" target="BfcjpGbVQdAkZ2BNocG8-27">
          <mxGeometry relative="1" as="geometry" />
        </mxCell>
        <mxCell id="BfcjpGbVQdAkZ2BNocG8-24" value="enqueue" style="rounded=0;whiteSpace=wrap;html=1;" vertex="1" parent="WIyWlLk6GJQsqaUBKTNV-1">
          <mxGeometry x="570" y="282.5" width="110" height="35" as="geometry" />
        </mxCell>
        <mxCell id="BfcjpGbVQdAkZ2BNocG8-32" style="edgeStyle=orthogonalEdgeStyle;rounded=0;orthogonalLoop=1;jettySize=auto;html=1;entryX=0.5;entryY=0;entryDx=0;entryDy=0;fontFamily=Helvetica;fontSize=13;fontColor=#000000;" edge="1" parent="WIyWlLk6GJQsqaUBKTNV-1" source="BfcjpGbVQdAkZ2BNocG8-27" target="BfcjpGbVQdAkZ2BNocG8-30">
          <mxGeometry relative="1" as="geometry" />
        </mxCell>
        <mxCell id="BfcjpGbVQdAkZ2BNocG8-27" value="&lt;pre style=&quot;background-color: rgb(248, 249, 250);&quot;&gt;&lt;span style=&quot;background-color: rgb(255, 255, 255);&quot;&gt;&lt;font style=&quot;&quot; face=&quot;Helvetica&quot;&gt;&lt;span style=&quot;font-size: 9.8pt;&quot;&gt;dispatcher..enqueue(new &lt;/span&gt;&lt;span style=&quot;font-size: 9.8pt;&quot;&gt;AsyncCall(&lt;/span&gt;&lt;font style=&quot;font-size: 13px;&quot;&gt;responseCallback&lt;/font&gt;&lt;span style=&quot;font-size: 9.8pt;&quot;&gt;))&lt;/span&gt;&lt;/font&gt;&lt;/span&gt;&lt;/pre&gt;" style="rounded=0;whiteSpace=wrap;html=1;labelBackgroundColor=#FFFFFF;fontColor=#000000;strokeColor=#000000;" vertex="1" parent="WIyWlLk6GJQsqaUBKTNV-1">
          <mxGeometry x="425" y="359" width="400" height="43" as="geometry" />
        </mxCell>
        <mxCell id="BfcjpGbVQdAkZ2BNocG8-37" value="是" style="edgeStyle=orthogonalEdgeStyle;rounded=0;orthogonalLoop=1;jettySize=auto;html=1;entryX=0.5;entryY=0;entryDx=0;entryDy=0;fontFamily=Helvetica;fontSize=13;fontColor=#000000;" edge="1" parent="WIyWlLk6GJQsqaUBKTNV-1" source="BfcjpGbVQdAkZ2BNocG8-30" target="BfcjpGbVQdAkZ2BNocG8-36">
          <mxGeometry relative="1" as="geometry" />
        </mxCell>
        <mxCell id="BfcjpGbVQdAkZ2BNocG8-46" style="edgeStyle=orthogonalEdgeStyle;rounded=0;orthogonalLoop=1;jettySize=auto;html=1;entryX=0;entryY=0.5;entryDx=0;entryDy=0;fontFamily=Helvetica;fontSize=13;fontColor=#000000;" edge="1" parent="WIyWlLk6GJQsqaUBKTNV-1" source="BfcjpGbVQdAkZ2BNocG8-30" target="BfcjpGbVQdAkZ2BNocG8-45">
          <mxGeometry relative="1" as="geometry" />
        </mxCell>
        <mxCell id="BfcjpGbVQdAkZ2BNocG8-30" value="运行中的异步请求数小于最大值并且&lt;br&gt;运行中的同域名请求小于最大值" style="rhombus;whiteSpace=wrap;html=1;labelBackgroundColor=#FFFFFF;fontFamily=Helvetica;fontSize=13;fontColor=#000000;strokeColor=#000000;" vertex="1" parent="WIyWlLk6GJQsqaUBKTNV-1">
          <mxGeometry x="440" y="427" width="370" height="70" as="geometry" />
        </mxCell>
        <mxCell id="BfcjpGbVQdAkZ2BNocG8-42" style="edgeStyle=orthogonalEdgeStyle;rounded=0;orthogonalLoop=1;jettySize=auto;html=1;entryX=0.5;entryY=0;entryDx=0;entryDy=0;fontFamily=Helvetica;fontSize=13;fontColor=#000000;" edge="1" parent="WIyWlLk6GJQsqaUBKTNV-1" source="BfcjpGbVQdAkZ2BNocG8-36" target="BfcjpGbVQdAkZ2BNocG8-41">
          <mxGeometry relative="1" as="geometry" />
        </mxCell>
        <mxCell id="BfcjpGbVQdAkZ2BNocG8-36" value="&lt;pre style=&quot;&quot;&gt;&lt;span style=&quot;background-color: rgb(255, 255, 255);&quot;&gt;&lt;font face=&quot;Helvetica&quot; style=&quot;font-size: 13px;&quot;&gt;executorService().execute(call)&lt;/font&gt;&lt;/span&gt;&lt;/pre&gt;" style="rounded=0;whiteSpace=wrap;html=1;labelBackgroundColor=#FFFFFF;fontFamily=Helvetica;fontSize=13;fontColor=#000000;strokeColor=#000000;" vertex="1" parent="WIyWlLk6GJQsqaUBKTNV-1">
          <mxGeometry x="508.75" y="540" width="232.5" height="50" as="geometry" />
        </mxCell>
        <mxCell id="BfcjpGbVQdAkZ2BNocG8-43" style="edgeStyle=orthogonalEdgeStyle;rounded=0;orthogonalLoop=1;jettySize=auto;html=1;exitX=0.5;exitY=1;exitDx=0;exitDy=0;fontFamily=Helvetica;fontSize=13;fontColor=#000000;entryX=1;entryY=0.5;entryDx=0;entryDy=0;" edge="1" parent="WIyWlLk6GJQsqaUBKTNV-1" source="BfcjpGbVQdAkZ2BNocG8-41" target="BfcjpGbVQdAkZ2BNocG8-5">
          <mxGeometry relative="1" as="geometry">
            <mxPoint x="410" y="440" as="targetPoint" />
          </mxGeometry>
        </mxCell>
        <mxCell id="BfcjpGbVQdAkZ2BNocG8-41" value="&lt;pre style=&quot;&quot;&gt;&lt;span style=&quot;background-color: rgb(255, 255, 255);&quot;&gt;&lt;font face=&quot;Helvetica&quot; style=&quot;font-size: 13px;&quot;&gt;AsyncCall.execute&lt;/font&gt;&lt;/span&gt;&lt;/pre&gt;" style="rounded=0;whiteSpace=wrap;html=1;labelBackgroundColor=#FFFFFF;fontFamily=Helvetica;fontSize=13;fontColor=#000000;strokeColor=#000000;" vertex="1" parent="WIyWlLk6GJQsqaUBKTNV-1">
          <mxGeometry x="533.12" y="610" width="183.75" height="50" as="geometry" />
        </mxCell>
        <mxCell id="BfcjpGbVQdAkZ2BNocG8-45" value="&lt;pre style=&quot;font-size: 9.8pt;&quot;&gt;&lt;span style=&quot;background-color: rgb(255, 255, 255);&quot;&gt;&lt;font face=&quot;Helvetica&quot;&gt;readyAsyncCalls.add(call)&lt;/font&gt;&lt;/span&gt;&lt;/pre&gt;" style="rounded=0;whiteSpace=wrap;html=1;labelBackgroundColor=#FFFFFF;fontFamily=Helvetica;fontSize=13;fontColor=#000000;strokeColor=#000000;" vertex="1" parent="WIyWlLk6GJQsqaUBKTNV-1">
          <mxGeometry x="840" y="438.5" width="210" height="47" as="geometry" />
        </mxCell>
      </root>
    </mxGraphModel>
  </diagram>
</mxfile>
